{"title":"The.Last.Airbender.2010.DvDRip.XviD.Feel-Free","uid":5860673,"size":1779776482,"categoryP":"video","categoryS":"movies","magnet":"?xt=urn:btih:10eb9762fd2eac27de3f1bada79a3cac642d58f3&amp;dn=The.Last.Airbender.2010.DvDRip.XviD.Feel-Free&amp;tr=udp%3A%2F%2Ftracker.openbittorrent.com%3A80&amp;tr=udp%3A%2F%2Fopen.demonii.com%3A1337&amp;tr=udp%3A%2F%2Ftracker.coppersurfer.tk%3A6969&amp;tr=udp%3A%2F%2Fexodus.desync.com%3A6969","seeders":1,"leechers":0,"uploader":"neon","files":-1,"time":1285956721,"description":"Genre:Action | Adventure | Family | Fantasy\nLanguage:English\n &lt;a href=&quot; http://www.imdb.com/title/tt0938283/&quot; rel=&quot;nofollow&quot; target=&quot;_NEW&quot;&gt; http://www.imdb.com/title/tt0938283/&lt;/a&gt;\nSource:DVD R1\nSubtitles:Romana\n\nGeneral\nComplete name :The.Last.Airbender.2010.DvDRip.XviD.Feel-Free\nFormat : AVI\nFormat/Info : Audio Video Interleave\nFile size : 1.66 GiB\nDuration : 1h 43mn\nOverall bit rate : 2 298 Kbps\nVideo #0\nMuxing mode : Packed bitstream\nCodec ID : XVID\nCodec ID/Hint : XviD\nDuration : 1h 43mn\nBit rate : 1 516 Kbps\nWidth : 688 pixels\nHeight : 288 pixels\nDisplay aspect ratio : 2.35:1\nFrame rate : 23.976 fps\nResolution : 24 bits\nColorimetry : 4:2:0\nScan type : Progressive\nBits/(Pixel*Frame) : 0.319\nStream size : 1.09 GiB (66%)\nWriting library : XviD 1.2.1 (UTC 2008-12-04)\nAudio #1\nID : 1\nFormat : AC-3\nFormat/Info : Audio Coding 3\nCodec ID : 2000\nDuration : 1h 43mn\nBit rate mode : Constant\nBit rate : 448 Kbps\nChannel(s) : 6 channels\nChannel positions : Front: L C R, Surround: L R, LFE\nSampling rate : 48.0 KHz\nStream size : 331 MiB (19%)\nAlignment : Split accross interleaves\nInterleave, duration : 42 ms (1.00 video frame)\nInterleave, preload duration : 500 ms\nAudio #2\nID : 2\nFormat : MPEG Audio\nFormat version : Version 1\nFormat profile : Layer 3\nCodec ID : 55\nCodec ID/Hint : MP3\nDuration : 1h 43mn\nBit rate mode : Constant\nBit rate : 320 Kbps\nChannel(s) : 2 channels\nSampling rate : 48.0 KHz\nResolution : 16 bits\nStream size : 236 MiB (14%)\nAlignment : Aligned on interleaves\nInterleave, duration : 42 ms (1.00 video frame)\nInterleave, preload duration : 504 ms\nWriting library : LAME3.98.2\n\nNotes&gt;Audio 1-Ac3.448kbps.Engleza/Audio 2-Mp3.320kbps.Engleza\n\nPlot:\nThe story follows the adventures of Aang, a young successor to a long line of Avatars, who must put his childhood ways aside and stop the Fire Nation from enslaving the Water, Earth and Air nations.","torrent":{"xt":"urn:btih:10eb9762fd2eac27de3f1bada79a3cac642d58f3","amp;dn":"The.Last.Airbender.2010.DvDRip.XviD.Feel-Free","amp;tr":["udp%3A%2F%2Ftracker.openbittorrent.com%3A80","udp%3A%2F%2Fopen.demonii.com%3A1337","udp%3A%2F%2Ftracker.coppersurfer.tk%3A6969","udp%3A%2F%2Fexodus.desync.com%3A6969"],"infoHash":"10eb9762fd2eac27de3f1bada79a3cac642d58f3","infoHashBuffer":{"type":"Buffer","data":[16,235,151,98,253,46,172,39,222,63,27,173,167,154,60,172,100,45,88,243]},"announce":[],"urlList":[]}}